<?xml version="1.0" encoding="utf-8"?>
<!-- Generator: Adobe Illustrator 18.1.0, SVG Export Plug-In . SVG Version: 6.00 Build 0)  -->
<!DOCTYPE svg PUBLIC "-//W3C//DTD SVG 1.1//EN" "http://www.w3.org/Graphics/SVG/1.1/DTD/svg11.dtd">
<svg version="1.1" id="Layer_1" xmlns="http://www.w3.org/2000/svg" xmlns:xlink="http://www.w3.org/1999/xlink" x="0px" y="0px"
	 viewBox="0 0 1920 1080" enable-background="new 0 0 1920 1080" xml:space="preserve">
<g>
	<g>
		<g>
			<g>
				<g>
					<path fill="#F26A62" d="M490,455.7l-0.4,186.1c0,52.7-19.4,76.3-69.7,67l0.7-21.1c37.1,6.7,42.3-12.8,42.3-46.1V455.7H490z
						 M476.5,383c8.6,0,16.9,5.6,16.9,16.9c0,11.2-7.9,16.9-16.4,17.3c-8.6,0.4-18-5.2-18-17.3C459,388.6,467.6,383,476.5,383z"/>
				</g>
				<g>
					<path fill="#F26A62" d="M845.8,455.7v74.5c0,31.5-9.4,72.2-48.6,72.2c-31.9,0-48.8-19.1-48.8-59.4v-87.3h-27.2v9.2
						c-2.2,23.9-14.9,41-32.2,51.5c-20.7-93.6-173.9-86.4-173.9,22c0,114.8,172.4,115.4,176,3.6c11.5-5.8,21.8-13.9,30.1-23.9v25.4
						c0,54.2,24.1,82.4,71.1,82.1c26.5,0,44.3-10.8,54.9-35.3v40.1c0,68.8-74.5,67.3-120.1,41l-2,22.7
						c62.8,34.9,147.2,21.4,147.2-63.9V455.5h-26.6V455.7z M542.5,538.3c0-12.2,2.5-22.9,7-31.7h0.4c20.3,38.9,69.3,54.2,112.5,45.2
						c0,0,0.4,0,0.7-0.2C650.9,623.3,542.5,618.6,542.5,538.3z M568.8,484.7c33.3-22.1,87.1-8.3,94.5,41.4
						C628.7,533.1,585.7,517.3,568.8,484.7z"/>
				</g>
				<g>
					<path fill="#F26A62" d="M1052.6,576.7c0,16.6,0,25.9,20.2,24.3v20.5c-25.9,4.5-42.7-2.2-42.7-28.4v-5.9
						c-10.1,25.4-34.9,37.4-61.7,37.4c-50.9,0-76-41.2-76-87.7c1.1-54.9,38.9-85.3,93.2-85.3c23.2,0.4,46.1,6.3,67,15.7V576.7
						L1052.6,576.7z M1026.4,483.4c-13.9-6.7-29.5-9.7-42.3-9.7c-37.8,0-63.2,22.5-64.1,63.2c0,34.9,18.7,62.8,53.6,62.8
						c34,0,52.7-25.9,52.7-62.8V483.4L1026.4,483.4z"/>
				</g>
				<g>
					<path fill="#F26A62" d="M1091.5,370.8h25.4v114.7c11.2-20.9,29.5-33.3,58.9-33.3c39.2,0,76.7,27.7,74.9,87.7
						c-1.8,59.6-40.9,86.6-92.5,86.6c-23.6-0.4-45.7-6.3-66.6-15.7V370.8L1091.5,370.8z M1118.2,594.1c14.2,5.9,28.4,9.4,42.3,9.4
						c37.1,0,61.7-21.8,62.8-63.2c0.4-41.6-21.8-64.8-54-64.8c-35.6,0-50.9,34.4-50.9,64.8v53.8H1118.2z"/>
				</g>
				<g>
					<path fill="#F26A62" d="M1301.2,368.1v193.9c0,32.6,6.8,44.1,41.9,39.6l1.1,21.4c-50.9,8.3-70.4-9.4-70.4-61V368.1H1301.2z"/>
				</g>
				<g>
					<path fill="#F26A62" d="M1493.3,612.7c-19.1,9.4-38.5,12.1-58,12.4c-59.6,1.1-97-36-92.5-95.4c3.8-49.9,39.2-77.9,85.7-79
						c34.4,0,74.2,15.3,71.5,55.4c-1.8,34.7-36.4,47.5-65.5,48.6c-22.1,0-49-4.1-65.9-16.6c-1.4,43,25,65.2,68.2,65.2
						c19.1-0.4,39.2-4.9,55.4-12.1L1493.3,612.7z M1429.6,533.7c19.1,0,42.3-7,44.1-28.4c2.7-22.9-25-32.2-45-32.2
						c-29.2,0-50.9,14.9-57.6,44.5C1385.1,528.8,1410.5,533.7,1429.6,533.7z"/>
				</g>
			</g>
		</g>
	</g>
</g>
</svg>
